<svg width="40" height="40" viewBox="0 0 40 40" fill="none" xmlns="http://www.w3.org/2000/svg">
  <!-- Main Circle Background -->
  <circle cx="20" cy="20" r="19" stroke="url(#paint0_linear)" stroke-width="2"/>
  
  <!-- AI Brain Icon -->
  <path d="M20 8C13.3726 8 8 13.3726 8 20C8 26.6274 13.3726 32 20 32C26.6274 32 32 26.6274 32 20C32 13.3726 26.6274 8 20 8Z" fill="url(#paint1_linear)"/>
  
  <!-- Brain Circuit Pattern -->
  <path d="M15 16C15 15.4477 15.4477 15 16 15H24C24.5523 15 25 15.4477 25 16V24C25 24.5523 24.5523 25 24 25H16C15.4477 25 15 24.5523 15 24V16Z" fill="white" fill-opacity="0.9"/>
  <path d="M18 18H22M18 22H22" stroke="#4F46E5" stroke-width="2" stroke-linecap="round"/>
  
  <!-- Interview Speech Bubbles -->
  <path d="M12 14C12 13.4477 12.4477 13 13 13H15C15.5523 13 16 13.4477 16 14V16C16 16.5523 15.5523 17 15 17H13C12.4477 17 12 16.5523 12 16V14Z" fill="#FFC19E"/>
  <path d="M24 14C24 13.4477 24.4477 13 25 13H27C27.5523 13 28 13.4477 28 14V16C28 16.5523 27.5523 17 27 17H25C24.4477 17 24 16.5523 24 16V14Z" fill="#DDDFFF"/>
  
  <!-- Connection Lines -->
  <path d="M16 16L13 16" stroke="#4F46E5" stroke-width="1.5" stroke-linecap="round"/>
  <path d="M24 16L27 16" stroke="#4F46E5" stroke-width="1.5" stroke-linecap="round"/>
  
  <!-- Defs for Gradients -->
  <defs>
    <linearGradient id="paint0_linear" x1="4" y1="4" x2="36" y2="36" gradientUnits="userSpaceOnUse">
      <stop stop-color="#4F46E5"/>
      <stop offset="1" stop-color="#7C3AED"/>
    </linearGradient>
    <linearGradient id="paint1_linear" x1="8" y1="8" x2="32" y2="32" gradientUnits="userSpaceOnUse">
      <stop stop-color="#1E1B4B"/>
      <stop offset="1" stop-color="#312E81"/>
    </linearGradient>
  </defs>
</svg>
